<svg version="1.0" xmlns="http://www.w3.org/2000/svg"
 width="132" height="60" viewBox="0 0 132 60" fill="none"
 preserveAspectRatio="xMidYMid meet">

<g transform="translate(0,60) scale(0.030667,-0.015063)"
fill="#000000" stroke="none">
<path d="M1158 3023 c6 -2 18 -2 25 0 6 3 1 5 -13 5 -14 0 -19 -2 -12 -5z"/>
<path d="M1098 3013 c7 -3 16 -2 19 1 4 3 -2 6 -13 5 -11 0 -14 -3 -6 -6z"/>
<path d="M1233 3009 c85 -20 144 -65 172 -131 21 -52 19 -156 -5 -220 -13 -37
-15 -47 -4 -33 35 46 47 169 24 241 -7 21 -26 54 -44 73 -36 38 -119 81 -156
80 -19 -1 -16 -3 13 -10z"/>
<path d="M1050 3003 c-23 -8 -61 -45 -81 -78 l-19 -30 0 43 c0 55 -16 54 -24
-1 -4 -23 -13 -55 -21 -71 -20 -37 -19 -56 1 -28 21 30 36 28 24 -4 -6 -14
-10 -53 -10 -86 0 -53 -2 -59 -15 -48 -9 8 -16 32 -17 64 -1 49 -2 49 -5 9
l-4 -41 -28 15 c-35 21 -73 11 -91 -22 -21 -39 -2 -65 92 -131 46 -31 84 -59
86 -60 2 -1 -15 -39 -38 -84 -23 -45 -40 -92 -39 -103 5 -66 1 -73 -76 -128
-49 -35 -75 -60 -75 -73 0 -28 44 -81 80 -96 30 -12 31 -12 105 60 84 83 129
115 150 106 26 -9 51 -63 70 -146 10 -44 24 -85 32 -91 8 -7 34 -10 63 -7 75
7 110 48 76 87 -16 20 -56 125 -56 150 0 10 10 25 22 33 21 14 22 22 20 110
l-2 94 98 18 c53 10 104 23 112 28 11 6 9 7 -7 3 -16 -4 -30 1 -48 19 -44 44
-27 86 36 88 20 1 37 -6 45 -17 16 -22 18 -51 4 -60 -5 -3 -10 -12 -10 -18 1
-20 30 25 30 45 0 32 -46 69 -75 62 -25 -6 -25 -6 -11 27 8 19 16 50 20 69 3
21 -2 11 -15 -25 -23 -68 -30 -78 -58 -80 -11 -1 -30 -10 -42 -21 -21 -18 -21
-18 1 13 28 39 38 132 21 185 -14 42 -75 107 -120 125 -19 8 -57 15 -85 15
-133 1 -228 -105 -214 -240 5 -46 5 -46 -8 -17 -44 101 13 273 111 332 21 13
19 15 -5 6z m-101 -118 c0 -5 -4 -3 -9 5 -5 8 -9 22 -9 30 0 16 17 -16 18 -35z
m401 -109 c-1 -20 -2 -20 -15 4 -19 33 -19 46 0 30 8 -7 15 -22 15 -34z m-484
-51 c21 -21 23 -27 12 -44 -7 -11 -25 -25 -39 -32 -53 -21 -96 29 -65 76 21
32 60 32 92 0z m190 -120 c71 -45 72 -46 39 -40 -16 4 -40 13 -52 21 -25 16
-63 84 -63 111 1 10 11 -2 23 -27 12 -25 36 -54 53 -65z m-132 57 c15 -18 15
-21 -5 -45 -24 -31 -36 -33 -68 -11 l-23 16 34 29 c40 34 40 34 62 11z m44
-53 c11 -17 11 -25 -3 -45 -15 -23 -17 -23 -40 -8 -30 20 -30 19 -2 49 27 30
29 30 45 4z m412 -29 c-10 -6 -11 -10 -2 -10 6 0 12 -6 12 -14 0 -7 9 -25 20
-39 17 -22 18 -26 4 -31 -9 -3 -28 -6 -44 -6 -23 0 -30 5 -35 30 -5 24 -2 36
17 55 12 14 28 25 33 25 6 0 3 -5 -5 -10z m-363 -17 c4 -11 -5 -27 -30 -50
-36 -33 -65 -45 -51 -20 54 90 68 103 81 70z m120 -36 c50 -11 52 -13 62 -53
6 -23 22 -56 36 -73 23 -26 26 -38 23 -88 -3 -52 -6 -59 -31 -71 -16 -8 -30
-12 -33 -9 -2 2 3 39 12 81 9 43 12 82 7 86 -4 5 -61 21 -127 36 -135 31 -129
33 -147 -57 -15 -78 -23 -88 -48 -65 -27 24 -26 44 1 101 16 33 30 48 55 56
19 6 46 26 61 45 22 29 32 34 52 29 14 -4 48 -12 77 -18z m197 -45 c8 -13 -36
-27 -59 -18 -8 3 -15 18 -15 34 0 22 6 30 28 38 24 9 28 7 33 -17 3 -14 9 -31
13 -37z m-84 4 c0 -18 3 -49 7 -67 6 -31 5 -33 -10 -20 -13 10 -47 96 -47 118
0 2 11 3 25 3 22 0 25 -4 25 -34z m-143 -67 c51 -11 95 -24 98 -29 3 -5 -2
-43 -12 -85 l-16 -77 -46 7 c-70 10 -168 36 -186 49 -14 10 -14 18 0 81 20 85
21 86 48 80 12 -2 64 -14 114 -26z m-161 -156 c-7 -8 -76 23 -76 34 0 10 11 8
39 -9 22 -12 39 -24 37 -25z m6 -6 c15 0 25 -4 21 -10 -3 -5 3 -7 15 -3 34 11
33 -19 -1 -39 -18 -10 -41 -26 -52 -36 -20 -18 -21 -18 -37 9 -9 15 -28 34
-42 42 -25 13 -25 14 -9 32 14 15 24 18 48 12 16 -4 42 -7 57 -7z m105 -23
c-3 -3 -12 -4 -19 -1 -8 3 -5 6 6 6 11 1 17 -2 13 -5z m-201 -29 c42 -32 51
-60 28 -86 -20 -22 -34 -25 -34 -6 0 20 -53 67 -76 67 -16 1 -14 4 11 25 17
14 32 25 34 25 2 0 19 -11 37 -25z m249 15 c-4 -6 17 -8 57 -5 47 3 54 2 28
-4 l-35 -8 33 -2 c17 0 32 -5 32 -10 0 -5 2 -16 6 -24 4 -11 -6 -16 -38 -20
-24 -2 -50 -7 -58 -10 -10 -4 -22 7 -37 38 -12 24 -19 46 -16 49 10 10 35 7
28 -4z m-280 -83 c18 -26 20 -73 3 -80 -21 -7 -53 9 -81 43 -31 36 -34 55 -10
68 22 13 69 -4 88 -31z m398 -6 c13 -5 27 -19 30 -30 4 -18 1 -21 -28 -21 -18
0 -44 -9 -59 -21 l-26 -20 -10 26 c-16 42 -12 54 23 64 43 12 42 12 70 2z m51
-77 c34 -34 13 -61 -55 -70 -77 -10 -103 37 -40 71 35 19 76 19 95 -1z"/>
<path d="M974 2405 c-10 -25 4 -47 28 -43 24 3 36 34 20 50 -6 6 -8 0 -5 -16
5 -22 2 -26 -17 -26 -18 0 -21 4 -18 25 6 28 1 33 -8 10z"/>
<path d="M1454 2866 c-3 -8 -1 -23 5 -33 9 -15 10 -13 9 15 -2 35 -6 39 -14
18z"/>
<path d="M1444 2798 c1 -21 6 -41 9 -45 9 -9 7 26 -3 57 -7 21 -8 19 -6 -12z"/>
<path d="M3656 2701 c-4 -5 -9 -142 -13 -305 -6 -275 -5 -296 11 -302 10 -4
24 0 32 8 13 12 16 64 17 309 l2 294 -22 3 c-11 2 -24 -1 -27 -7z"/>
<path d="M1630 2671 c-23 -6 -25 -12 -31 -86 -4 -44 -10 -166 -14 -270 -7
-170 -6 -192 9 -204 33 -27 45 2 48 116 l3 104 56 3 c69 3 137 35 169 78 18
24 25 49 28 96 4 62 4 62 -39 106 -59 59 -145 80 -229 57z m161 -83 c104 -58
40 -187 -93 -188 l-48 0 0 89 c0 49 3 96 6 105 9 24 88 21 135 -6z"/>
<path d="M2992 2673 c-13 -2 -27 -14 -31 -27 -5 -12 -12 -137 -16 -277 -7
-239 -6 -256 10 -263 35 -13 44 11 47 122 l3 107 32 -3 c53 -6 135 24 169 60
43 45 54 69 54 120 0 90 -76 158 -182 163 -35 2 -73 1 -86 -2z m141 -74 c62
-32 81 -77 56 -132 -16 -36 -78 -67 -133 -67 l-46 0 0 98 c0 54 3 102 7 105
11 11 92 8 116 -4z"/>
<path d="M2612 2497 c-18 -21 -4 -587 15 -594 32 -12 43 17 43 112 l0 93 69
-2 c75 -1 104 12 145 67 42 57 34 216 -15 272 -48 54 -94 55 -201 7 -3 -2 -8
9 -10 25 -3 31 -28 42 -46 20z m215 -103 c24 -38 29 -133 9 -172 -20 -38 -44
-52 -88 -52 -78 0 -79 2 -76 108 l3 96 34 23 c47 32 96 31 118 -3z"/>
<path d="M2074 2476 c-28 -13 -55 -29 -59 -36 -5 -8 -12 -2 -21 19 -9 22 -19
31 -31 29 -16 -3 -18 -21 -21 -191 -2 -161 0 -188 13 -193 35 -14 45 14 45
128 0 127 12 155 80 182 60 24 70 21 70 -18 0 -41 23 -65 45 -46 10 8 15 30
15 65 0 87 -41 105 -136 61z"/>
<path d="M2333 2471 c-54 -25 -91 -81 -103 -156 -18 -112 25 -189 122 -215 93
-26 228 25 228 85 0 31 -29 40 -51 16 -46 -50 -171 -54 -217 -8 -14 15 -24 28
-21 30 2 2 47 23 99 46 115 52 150 82 150 128 0 41 -26 68 -77 82 -54 15 -82
13 -130 -8z m136 -65 l24 -14 -39 -23 c-58 -36 -163 -83 -169 -77 -11 10 27
88 53 108 29 23 95 26 131 6z"/>
<path d="M3385 2471 c-47 -22 -99 -74 -114 -114 -15 -40 -14 -131 3 -171 31
-75 118 -104 202 -67 l47 21 22 -20 c22 -21 55 -19 55 4 -1 6 -9 36 -20 66
-21 59 -25 141 -10 205 11 48 -2 66 -59 83 -53 16 -79 15 -126 -7z m107 -56
c10 -4 13 -32 13 -111 0 -102 -1 -106 -25 -119 -38 -21 -102 -19 -128 5 -38
36 -41 114 -6 168 30 46 102 74 146 57z"/>
</g>
</svg>
